<svg width="26" height="26" version="1.1" xmlns="http://www.w3.org/2000/svg">
 <path d="m22.83 17.12h-15.42c-0.593 0-1.15-0.15-1.622-0.407v1.956c0 0.829 0.725 1.507 1.622 1.507h14.66c1.726 0 3.134 1.309 3.134 2.912 0 1.604-1.408 2.913-3.134 2.913-1.725 0-3.134-1.304-3.134-2.913 0-0.534 0.156-1.036 0.432-1.469h-6.981c0.277 0.427 0.432 0.935 0.432 1.469 0 1.604-1.409 2.913-3.135 2.913-1.725 0-3.133-1.304-3.133-2.913 0-0.545 0.166-1.058 0.448-1.496-1.558-0.187-2.766-1.427-2.766-2.923v-15.81l-3.76-1.475c-0.397-0.155-0.581-0.576-0.414-0.945s0.621-0.54 1.017-0.385l4.239 1.657c0.022 0.01 0.051 0.021 0.074 0.032 6e-3 5e-3 0.012 5e-3 0.017 0.01 0.012 6e-3 0.029 0.016 0.047 0.027 0.011 0.011 0.022 0.016 0.034 0.027 5e-3 5e-3 0.017 0.01 0.024 0.016 0.017 0.01 0.028 0.021 0.04 0.032 5e-3 5e-3 0.011 0.01 0.017 0.016 0.011 0.01 0.022 0.021 0.034 0.032 6e-3 5e-3 0.012 0.01 0.017 0.016 6e-3 0.01 0.018 0.021 0.023 0.032 6e-3 0.01 0.012 0.016 0.017 0.026 7e-3 0.011 0.012 0.016 0.017 0.027 0.012 0.011 0.018 0.022 0.024 0.032 6e-3 6e-3 6e-3 0.016 0.011 0.022 0.012 0.016 0.018 0.026 0.024 0.042 0 6e-3 5e-3 0.016 5e-3 0.022 6e-3 0.016 0.012 0.032 0.017 0.048 0 0.011 7e-3 0.016 7e-3 0.027 5e-3 0.016 5e-3 0.026 0.01 0.042 0 0.016 7e-3 0.033 7e-3 0.049 5e-3 0.01 5e-3 0.016 5e-3 0.021 6e-3 0.021 6e-3 0.048 6e-3 0.075v2.533l19.54 2.506c0.012 0 0.018 5e-3 0.024 5e-3 0.017 0 0.028 0 0.045 5e-3 7e-3 0 0.018 6e-3 0.029 6e-3 0.012 0 0.029 5e-3 0.04 0.01 0.012 6e-3 0.024 6e-3 0.036 0.011 0.01 5e-3 0.022 0.011 0.034 0.016 0.011 5e-3 0.023 0.011 0.034 0.016s0.023 0.011 0.035 0.016c0.011 0.011 0.023 0.016 0.034 0.021 0.011 6e-3 0.018 0.011 0.028 0.016 0.012 6e-3 0.024 0.016 0.036 0.022 0.011 5e-3 0.017 0.016 0.028 0.021 0.012 0.011 0.017 0.016 0.029 0.027 5e-3 5e-3 0.017 0.011 0.023 0.022 6e-3 0.01 0.017 0.016 0.023 0.026 6e-3 0.011 0.017 0.016 0.023 0.027 0.012 0.011 0.017 0.016 0.022 0.027 7e-3 0.01 0.018 0.021 0.024 0.032 6e-3 0.01 0.011 0.016 0.017 0.026 6e-3 0.011 0.012 0.022 0.018 0.032 5e-3 6e-3 0.011 0.016 0.017 0.027 5e-3 0.016 0.012 0.027 0.017 0.037 5e-3 0.011 5e-3 0.022 0.012 0.032 5e-3 0.011 5e-3 0.022 0.011 0.033 6e-3 0.016 6e-3 0.026 0.011 0.037 0 0.011 6e-3 0.021 6e-3 0.032s6e-3 0.027 6e-3 0.037c6e-3 0.011 6e-3 0.022 6e-3 0.033v0.042 0.022 6.027c0 1.624-1.426 2.95-3.174 2.95zm-0.748 7.433c0.868 0 1.582-0.658 1.582-1.47s-0.714-1.469-1.582-1.469-1.581 0.662-1.581 1.469 0.713 1.47 1.581 1.47zm-12.39 0c0.867 0 1.581-0.658 1.581-1.47s-0.714-1.469-1.581-1.469c-0.869 0-1.582 0.662-1.582 1.469s0.713 1.47 1.582 1.47zm14.76-15.79-18.66-2.388v7.796c0 0.829 0.725 1.507 1.622 1.507h15.42c0.891 0 1.621-0.673 1.622-1.512z"/>
</svg>
