<svg width="34.19" height="30" version="1.1" xmlns="http://www.w3.org/2000/svg">
 <path d="m8.492 0c-0.313 0-0.5664 0.2534-0.5664 0.5664v5.66c0 0.312 0.2534 0.5664 0.5664 0.5664h1.131v11.32h-0.5645c-1.405-3e-3 -2.782 0.3992-3.963 1.16v-2.859c0-0.313-0.2544-0.5645-0.5664-0.5645h-3.961c-0.313 0-0.5684 0.2515-0.5684 0.5645v13.02c0 0.313 0.2554 0.5664 0.5684 0.5664h3.961c0.312 0 0.5664-0.2534 0.5664-0.5664v-2.857c1.181 0.76 2.558 1.163 3.963 1.16h9.293c0.644-1e-3 1.285-0.08595 1.908-0.252l12.26-3.283c1.206-0.329 1.919-1.569 1.598-2.777-0.237-0.864-0.9617-1.508-1.848-1.641v-12.99h1.133c0.312 0 0.5664-0.2544 0.5664-0.5664v-5.66c0-0.313-0.2544-0.5664-0.5664-0.5664zm0.5664 1.133h23.77v4.527h-23.77zm1.697 5.66h20.38v13.09l-6.568 1.762c-0.271-0.646-0.822-1.129-1.498-1.314l-7.627-2.045c-0.429-0.114-0.8724-0.1709-1.316-0.1699h-3.367zm7.359 1.131c-0.313 0-0.5664 0.2534-0.5664 0.5664s0.2534 0.5664 0.5664 0.5664h5.66c0.312 0 0.5664-0.2534 0.5664-0.5664s-0.2544-0.5664-0.5664-0.5664zm-16.98 9.057h2.832v11.89h-2.832zm7.926 2.264h5.064c0.346 0 0.6914 0.04677 1.025 0.1348l7.625 2.043c0.45 0.124 0.781 0.5106 0.832 0.9746 6e-3 0.024 0.01444 0.04636 0.02344 0.06836-7e-3 0.024-0.01162 0.04922-0.01563 0.07422 0 0.092-0.01211 0.1844-0.03711 0.2734-0.133 0.492-0.5798 0.8349-1.092 0.8359-0.099 0-0.1989-0.01111-0.2949-0.03711l-4.811-1.291c-0.198-0.058-0.4116-0.0044-0.5586 0.1406-0.147 0.144-0.2034 0.3567-0.1484 0.5547 0.056 0.198 0.2111 0.3504 0.4121 0.3984l4.812 1.291c0.192 0.05 0.3899 0.07617 0.5879 0.07617 1.019-1e-3 1.912-0.6831 2.18-1.664 0.032-0.114 0.05345-0.2287 0.06445-0.3457l6.9-1.85c0.049-0.013 0.1033-0.02716 0.1523-0.03516 0.564-0.073 1.094 0.283 1.24 0.832 0.025 0.096 0.03811 0.1959 0.03711 0.2949 1e-3 0.512-0.3439 0.9608-0.8379 1.094l-12.25 3.283c-0.527 0.141-1.071 0.2119-1.617 0.2129h-9.293c-1.347 2e-3 -2.66-0.4351-3.736-1.246l-0.2266-0.1699v-4.527l0.2266-0.1699c1.076-0.811 2.389-1.25 3.736-1.246z"/>
</svg>
