<svg width="25.7" height="22.8" version="1.1" xmlns="http://www.w3.org/2000/svg">
 <path d="m7.486 0c-1.992 0-3.885 0.7852-5.293 2.193-1.412 1.412-2.198 3.305-2.193 5.303 5.189e-4 1.998 0.7939 3.885 2.203 5.295l9.557 9.557c0.2929 0.2929 0.6751 0.4531 1.084 0.4531 0.3925 0 0.7835-0.1487 1.084-0.4492l9.576-9.539c1.412-1.411 2.196-3.304 2.197-5.299v-0.00195c0.006227-1.996-0.7749-3.891-2.188-5.303-1.412-1.413-3.303-2.193-5.297-2.193-1.997 0-3.89 0.7845-5.303 2.197l-0.05469 0.05469-0.06445-0.06445c-1.413-1.413-3.31-2.203-5.309-2.203z"/>
</svg>
