<svg width="25.7" height="22.8" version="1.1" xmlns="http://www.w3.org/2000/svg">
 <path d="m7.486 0c-1.992 0-3.885 0.7852-5.293 2.193-1.412 1.412-2.198 3.305-2.193 5.303 5.189e-4 1.998 0.7939 3.885 2.203 5.295l9.557 9.557c0.2929 0.2929 0.6751 0.4531 1.084 0.4531 0.3925 0 0.7835-0.1487 1.084-0.4492l9.576-9.539c1.412-1.411 2.196-3.304 2.197-5.299v-0.00195c0.006227-1.996-0.7749-3.891-2.188-5.303-1.412-1.413-3.303-2.193-5.297-2.193-1.997 0-3.89 0.7845-5.303 2.197l-0.05469 0.05469-0.06445-0.06445c-1.413-1.413-3.31-2.203-5.309-2.203zm0 1.699c1.554 0 3.004 0.6038 4.105 1.705l1.268 1.268 1.256-1.256c1.101-1.101 2.546-1.701 4.102-1.701 1.556-1e-7 2.996 0.5945 4.096 1.695 1.1 1.099 1.693 2.543 1.688 4.098v0.00195c0 1.556-0.5964 3-1.697 4.1l-9.455 9.42-9.441-9.439c-1.102-1.103-1.705-2.542-1.705-4.096v-0.00195c-0.0035-1.554 0.5952-2.998 1.695-4.098 1.096-1.096 2.54-1.695 4.09-1.695z"/>
</svg>
