<svg width="20" height="20" version="1.1" xmlns="http://www.w3.org/2000/svg">
 <path d="m19.83 19.82c-0.116 0.12-0.271 0.178-0.422 0.178-0.15 0-0.306-0.063-0.421-0.178l-4.862-4.86c-1.499 1.304-3.455 2.093-5.593 2.093-4.702 0-8.529-3.827-8.529-8.528-0-4.7 3.823-8.527 8.529-8.527 4.702-0 8.53 3.823 8.53 8.527 0 2.138-0.79 4.093-2.093 5.592l4.861 4.861c0.23 0.23 0.23 0.612 0 0.842zm-3.97-11.3c0-4.039-3.287-7.33-7.333-7.33-4.04 0-7.331 3.286-7.331 7.33 0 4.045 3.291 7.335 7.331 7.335 4.046 0 7.333-3.295 7.333-7.335z"/>
</svg>
