<svg width="19.25" height="24" version="1.1" xmlns="http://www.w3.org/2000/svg">
 <path d="m9.621 0c-5.304 0-9.621 4.316-9.621 9.619 0 0.604 0.05783 1.214 0.1738 1.807 4e-3 0.036 0.02445 0.1413 0.06445 0.3223 0.146 0.649 0.3635 1.287 0.6445 1.896 1.037 2.44 3.315 6.19 8.316 10.21 0.126 0.101 0.2758 0.1504 0.4258 0.1504 0.152 0 0.3037-0.04939 0.4297-0.1504 4.997-4.015 7.28-7.765 8.316-10.21 0.282-0.609 0.4985-1.242 0.6445-1.896 0.041-0.181 0.06045-0.2863 0.06445-0.3223 0.111-0.593 0.1719-1.203 0.1719-1.807-0.009997-5.303-4.328-9.619-9.631-9.619zm0 1.354c4.553 0 8.264 3.708 8.264 8.262 0 0.533-0.05134 1.061-0.1523 1.574 0 0.01-0.0059 0.02125-0.0059 0.03125-5e-3 0.025-0.01992 0.09884-0.04492 0.2148v0.0098c-0.126 0.564-0.3116 1.114-0.5586 1.643-4e-3 5e-3 -0.0038 0.01453-0.0098 0.01953-0.94 2.229-3.004 5.63-7.492 9.338-4.488-3.708-6.549-7.109-7.49-9.338-5e-3 -5e-3 -0.00672-0.01453-0.01172-0.01953-0.242-0.524-0.4276-1.079-0.5586-1.643v-0.0098c-0.03-0.116-0.03992-0.1898-0.04492-0.2148 0-0.01-0.00391-0.02016-0.00391-0.03516-0.101-0.519-0.1523-1.042-0.1523-1.57 0-4.554 3.708-8.262 8.262-8.262zm0.00195 3.264c-2.817 0-5.109 2.295-5.109 5.111-1e-7 2.816 2.292 5.109 5.109 5.109 2.816 0 5.109-2.293 5.109-5.109 0-2.816-2.293-5.111-5.109-5.111zm0 1.137c2.188 0 3.975 1.786 3.975 3.975 0 2.188-1.782 3.973-3.975 3.973-2.193 0-3.973-1.785-3.973-3.973 0-2.189 1.783-3.975 3.973-3.975z"/>
</svg>
