<svg width="31.04" height="30" version="1.1" xmlns="http://www.w3.org/2000/svg">
 <path d="m8.229 4.083e-5c-0.1661-0.00225-0.3255 0.08859-0.4043 0.2461l-1.037 2.074c-0.117 0.217-0.03631 0.4865 0.1797 0.6035 0.217 0.118 0.4885 0.03731 0.6055-0.1797 5e-3 -8e-3 0.00772-0.01639 0.01172-0.02539l0.8516-1.701 12.06 5.023c0.227 0.095 0.488-0.01128 0.582-0.2383 0.096-0.227-0.01028-0.49-0.2383-0.584l-12.44-5.186c-0.054-0.0225-0.1107-0.03245-0.166-0.0332zm-5.785 3.119c-0.057 0.00987-0.1121 0.031-0.1621 0.0625-0.1 0.063-0.1703 0.1643-0.1973 0.2793l-1.035 4.666c-0.053 0.24 0.09889 0.4772 0.3379 0.5312 0.24 0.053 0.4753-0.09889 0.5293-0.3379l0.9414-4.23 20.3 4.566c0.031 7e-3 0.06466 0.01172 0.09766 0.01172 0.245-1e-3 0.4444-0.2003 0.4434-0.4453 0-0.208-0.1437-0.3876-0.3457-0.4336l-20.74-4.666c-0.058-0.013-0.1168-0.01378-0.1738-0.00391zm-1.998 6.734c-0.245 0-0.4443 0.1974-0.4453 0.4434v12.44c0 0.245 0.1994 0.4453 0.4434 0.4453h17.63c0.246 0 0.4434-0.1993 0.4434-0.4453 0-0.245-0.1974-0.4434-0.4434-0.4434h-17.18v-11.55h25.04v1.111c-1e-3 0.245 0.1984 0.4434 0.4434 0.4434 0.245 1e-3 0.4453-0.1984 0.4453-0.4434v-1.557c0-0.245-0.1984-0.4434-0.4434-0.4434h-2e-3zm4.391 2.074c-0.116 0-0.2275 0.044-0.3105 0.125l-2.316 2.26c-0.086 0.101-0.1348 0.2303-0.1348 0.3633v3.686c0 0.111 0.04219 0.2188 0.1172 0.3008l2.105 2.305c0.085 0.093 0.2021 0.1445 0.3281 0.1445h4.117c0.245 0 0.4434-0.1993 0.4434-0.4453 0-0.245-0.1984-0.4434-0.4434-0.4434h-3.92l-1.857-2.033v-3.371l2.051-2.002h3.727c0.245 0 0.4434-0.2003 0.4434-0.4453 0-0.245-0.1984-0.4434-0.4434-0.4434zm12.2 0c-0.245 0-0.4434 0.1984-0.4434 0.4434s0.1984 0.4453 0.4434 0.4453h4.115c0.244 0 0.4453-0.2003 0.4453-0.4453s-0.2013-0.4434-0.4453-0.4434zm-4.148 0.02734c-2.519 0-4.563 2.044-4.563 4.564 3e-3 2.519 2.045 4.56 4.563 4.562 2.52 0 4.562-2.042 4.562-4.562s-2.042-4.564-4.562-4.564zm0 0.8301c2.062 0 3.734 1.673 3.734 3.734 0 2.062-1.672 3.732-3.734 3.732-2.061 0-3.732-1.67-3.732-3.732 2e-3 -2.061 1.671-3.732 3.732-3.734zm12.44 0.623c-2.748 0-5.701 0.6502-5.701 2.074v12.44c0 1.425 2.953 2.074 5.701 2.074s5.703-0.6492 5.703-2.074v-12.44c0-1.424-2.955-2.074-5.703-2.074zm-12.44 0.7773c-0.286 0-0.5176 0.2316-0.5176 0.5176v0.02539c-0.575 0.081-1.011 0.5587-1.037 1.139 0.038 0.68 0.6169 1.202 1.297 1.17h0.5176c0.162 0 0.2598 0.09186 0.2598 0.1309 0 0.04-0.09777 0.1289-0.2598 0.1289h-1.297c-0.286 0-0.5176 0.2316-0.5176 0.5176 0 0.287 0.2316 0.5195 0.5176 0.5195h0.5195c0 0.286 0.2316 0.5176 0.5176 0.5176 0.287 0 0.5195-0.2316 0.5195-0.5176v-0.02344c0.574-0.082 1.011-0.5606 1.037-1.141-0.037-0.68-0.6169-1.202-1.297-1.17h-0.5176c-0.161 0-0.2598-0.08991-0.2598-0.1289 0-0.039 0.09876-0.1289 0.2598-0.1289h1.295c0.287 0 0.5195-0.2335 0.5195-0.5195s-0.2325-0.5195-0.5195-0.5195h-0.5176c0-0.286-0.2325-0.5176-0.5195-0.5176zm12.44 0.2598c3.007 0 4.563 0.7441 4.666 1.037-0.103 0.294-1.659 1.037-4.666 1.037-3.029 0-4.583-0.7553-4.666-1.027v-0.0039c0.083-0.289 1.637-1.043 4.666-1.043zm-4.666 2.295c1.103 0.554 2.925 0.8164 4.666 0.8164s3.564-0.2614 4.666-0.8164v0.8086c-0.078 0.288-1.633 1.045-4.666 1.045-3.034 0-4.588-0.7571-4.666-1.037zm0 2.074c1.103 0.553 2.925 0.8164 4.666 0.8164s3.564-0.2634 4.666-0.8164v0.8066c-0.078 0.288-1.633 1.047-4.666 1.047-3.034 0-4.588-0.7571-4.666-1.037zm0 2.074c1.103 0.556 2.925 0.8145 4.666 0.8145s3.564-0.2605 4.666-0.8145v0.8066c-0.078 0.288-1.633 1.045-4.666 1.045-3.034 0-4.588-0.7571-4.666-1.037zm0 2.074c1.103 0.556 2.925 0.8145 4.666 0.8145s3.564-0.2605 4.666-0.8145v0.8066c-0.078 0.288-1.633 1.045-4.666 1.045-3.034 0-4.588-0.7571-4.666-1.037zm9.332 2.072v0.8086c-0.078 0.288-1.633 1.045-4.666 1.045-3.034 0-4.588-0.7571-4.666-1.037v-0.8145c1.103 0.555 2.925 0.8145 4.666 0.8145 1.741 1e-6 3.564-0.2624 4.666-0.8164zm0 2.074v0.8086c-0.078 0.288-1.633 1.045-4.666 1.045-3.034 0-4.588-0.7571-4.666-1.037v-0.8145c1.103 0.556 2.925 0.8145 4.666 0.8145s3.564-0.2624 4.666-0.8164z"/>
</svg>
