<svg width="20" height="20" version="1.1" xmlns="http://www.w3.org/2000/svg">
 <path d="m9.999 20c-5.523 0-9.999-4.477-9.999-10s4.476-10 9.999-10 10 4.477 10 10-4.478 10-10 10zm6.146-11.8c-0.776-2.57-3.166-4.447-5.985-4.447-3.447 0-6.251 2.804-6.251 6.251 0 3.446 2.804 6.251 6.251 6.251 0.602 0 1.09-0.488 1.09-1.09 0-0.601-0.488-1.089-1.09-1.089-2.246 0-4.073-1.827-4.073-4.072 0-2.246 1.827-4.073 4.073-4.073 1.791 0 3.316 1.163 3.86 2.774-0.488-0.264-1.105-0.119-1.422 0.35-0.336 0.499-0.203 1.176 0.296 1.512l2.018 1.359c0.181 0.122 0.393 0.186 0.609 0.186 0.068 0 0.139-7e-3 0.208-0.021 0.284-0.055 0.533-0.221 0.694-0.46l1.36-2.018c0.336-0.499 0.204-1.176-0.295-1.512-0.425-0.287-0.98-0.233-1.343 0.099z"/>
</svg>
