<svg width="20" height="20" version="1.1" xmlns="http://www.w3.org/2000/svg">
 <path d="m19.98 7.612c-0.042-0.136-0.154-0.236-0.289-0.257l-6.476-0.987-2.896-6.159c-0.06-0.128-0.184-0.209-0.32-0.209-0.136 0-0.261 0.081-0.321 0.209l-2.897 6.159-6.477 0.988c-0.134 0.02-0.246 0.12-0.289 0.256-0.041 0.136-7e-3 0.285 0.091 0.385l4.687 4.794-1.107 6.769c-0.023 0.141 0.033 0.283 0.142 0.367 0.111 0.085 0.257 0.096 0.378 0.029l5.793-3.196 5.792 3.196c0.051 0.029 0.109 0.043 0.167 0.043 0.074 0 0.147-0.024 0.21-0.072 0.111-0.084 0.165-0.226 0.142-0.367l-1.106-6.769 4.686-4.794c0.097-0.101 0.133-0.25 0.09-0.385z"/>
</svg>
