<svg width="16" height="15.53" version="1.1" xmlns="http://www.w3.org/2000/svg">
 <path d="m0.998 15.53c-0.55 0-0.998-0.5163-0.998-1.152v-7.33c0-0.636 0.448-1.154 0.998-1.154h2.674c0.55 0 0.9961 0.5183 0.9961 1.154v7.33c0 0.636-0.4461 1.152-0.9961 1.152zm5.223 0c-0.659 0-1.193-0.5354-1.193-1.193v-7.318c0-0.635 0.4939-1.153 1.131-1.189 0.02-3e-3 0.0455-0.00391 0.0625-0.00391h0.1152c0.089-0.016 0.1695-0.06286 0.2285-0.1309 0.031-0.06 0.0627-0.1254 0.0957-0.1934 0.389-0.787 0.998-2.308 0.707-3.646-0.011-0.05-0.011-0.09939 0-0.1504-7e-3 -0.057-0.01172-0.1149-0.01172-0.1719 0-0.843 0.6863-1.527 1.529-1.527 0.471 0 0.919 0.2217 1.209 0.5957 0 3e-3 0.0019 0.0039 0.0039 0.0059 0.08 0.091 1.833 2.15 0.8457 5.219h3.529c0.843-3.62e-5 1.529 0.6853 1.529 1.527 0 0.436-0.1836 0.8304-0.4766 1.109 0.293 0.278 0.4766 0.6714 0.4766 1.107 0 0.436-0.1836 0.8294-0.4766 1.107 0.293 0.279 0.4766 0.6734 0.4766 1.109 0 0.45-0.1968 0.8567-0.5078 1.137 0.278 0.276 0.4492 0.6591 0.4492 1.08 0 0.783-0.5942 1.433-1.367 1.514-0.033 9e-3 -0.06752 0.01367-0.1035 0.01367zm-5.223-0.8398h2.674c0.055 0 0.1562-0.1215 0.1562-0.3125v-7.33c0-0.191-0.1022-0.3145-0.1562-0.3145h-2.674c-0.054 0-0.1562 0.1225-0.1562 0.3145v7.33c0 0.191 0.1022 0.3125 0.1562 0.3125zm5.223 0h8.182c0.016-2e-3 0.03183-0.0049 0.04883-0.0059 0.366-0.02 0.6523-0.3176 0.6523-0.6816s-0.2863-0.6646-0.6523-0.6836c-0.224-0.012-0.3984-0.2028-0.3984-0.4258 0-0.233 0.1879-0.4199 0.4199-0.4199 0.379 0 0.6875-0.3085 0.6875-0.6875 0-0.38-0.3085-0.6895-0.6875-0.6895-0.232 0-0.4199-0.1879-0.4199-0.4199s0.1879-0.4199 0.4199-0.4199c0.379 0 0.6875-0.3085 0.6875-0.6875 0-0.38-0.3085-0.6875-0.6875-0.6875-0.232 0-0.4199-0.1879-0.4199-0.4199s0.1879-0.4199 0.4199-0.4199c0.379-1e-7 0.6875-0.3095 0.6875-0.6895 0-0.183-0.07117-0.3563-0.2012-0.4863-0.13-0.13-0.3033-0.2012-0.4863-0.2012h-4.133c-0.141 0-0.2726-0.0705-0.3496-0.1875-0.078-0.118-0.09111-0.2655-0.03711-0.3945 1.161-2.759-0.2748-4.66-0.4688-4.9-0.016-0.016-0.03097-0.03374-0.04297-0.05274-0.133-0.181-0.3356-0.2852-0.5566-0.2852-0.38 0-0.6875 0.3085-0.6875 0.6875 0 0.047 0.00463 0.09558 0.01562 0.1426 9e-3 0.045 0.00895 0.08977 0.00195 0.1348 0.269 1.469-0.2818 3.012-0.8008 4.063-0.043 0.088-0.08595 0.172-0.127 0.248-9e-3 0.019-0.01825 0.03669-0.03125 0.05469-0.202 0.271-0.4999 0.4433-0.8359 0.4863-0.017 2e-3 -0.03473 0.00391-0.05273 0.00391h-0.127c-0.012 1e-3 -0.0242 9.531e-4 -0.0332 0.00195-0.19 7e-3 -0.3398 0.1616-0.3398 0.3516v7.318c0 0.195 0.1595 0.3535 0.3535 0.3535z"/>
</svg>
