<svg width="16" height="15.53" version="1.1" xmlns="http://www.w3.org/2000/svg">
 <path d="m8.883 15.53c-0.843 0-1.527-0.6843-1.527-1.527 0-0.056 0.00277-0.1129 0.00977-0.1699-0.01-0.051-0.01295-0.1023-0.00195-0.1523 0.293-1.339-0.3151-2.859-0.7031-3.646-0.034-0.068-0.06666-0.1344-0.09766-0.1934-0.059-0.068-0.1385-0.1139-0.2285-0.1309h-0.1152c-0.016 0-0.0425-9.062e-4 -0.0625-0.00391-0.638-0.036-1.131-0.5545-1.131-1.189v-7.318c0-0.658 0.5354-1.193 1.193-1.193h8.252c0.036 0 0.07052 0.0037 0.1035 0.01172 0.773 0.082 1.367 0.7346 1.367 1.518 0 0.421 0.05664 1.764 0.05664 2.215v4.434c0 0.843-0.6834 1.527-1.525 1.527h-3.531c0.987 3.069-0.7657 5.127-0.8457 5.219-1e-3 2e-3 -0.0029 0.0029-0.0039 0.0059-0.289 0.374-0.738 0.5957-1.209 0.5957zm-7.887-5.889c-0.549 0-0.9961-0.5183-0.9961-1.154v-7.328c0-0.636 0.4471-1.154 0.9961-1.154h2.674c0.549 0 0.9961 0.5183 0.9961 1.154v7.328c0 0.636-0.4471 1.154-0.9961 1.154z"/>
</svg>
