<svg xmlns="http://www.w3.org/2000/svg" width="70" height="70">
<path d="M35.000,70.000 C15.700,70.000 -0.001,54.300 -0.001,35.000 C-0.001,15.700 15.700,-0.000 35.000,-0.000 C54.299,-0.000 70.000,15.700 70.000,35.000 C70.000,54.300 54.299,70.000 35.000,70.000 ZM58.257,55.842 C56.036,53.200 52.099,50.992 47.349,49.678 C45.457,48.850 45.028,48.650 44.556,48.264 L44.049,47.757 C43.278,47.014 42.856,46.607 42.714,45.500 L42.714,40.493 C44.049,38.928 44.900,36.850 45.735,34.107 C46.871,33.671 47.985,32.250 48.342,30.657 C48.728,28.950 48.543,27.507 47.893,26.714 C49.736,19.743 49.449,13.793 47.099,10.685 C45.864,9.042 44.071,8.178 41.906,8.178 C41.707,8.014 41.571,7.835 41.407,7.614 C40.564,6.457 39.663,5.642 35.757,5.642 L35.328,5.650 C30.628,5.650 27.071,7.057 24.736,9.857 C21.749,13.435 20.907,19.143 22.228,26.835 C21.657,27.635 21.493,28.978 21.793,30.578 C22.078,32.071 23.021,33.428 24.078,33.978 C25.099,36.978 26.171,39.050 27.399,40.442 C27.471,42.707 27.492,45.264 27.406,45.750 C27.271,46.464 26.900,47.100 26.214,47.785 C25.571,48.421 24.707,48.893 22.935,49.600 C17.971,50.964 14.000,53.185 11.757,55.850 L11.000,56.743 L11.886,57.514 C18.278,63.150 26.485,67.500 35.000,67.500 C43.506,67.500 51.714,63.150 58.128,57.514 L59.006,56.735 L58.257,55.842 Z"/>
</svg>