<svg width="100" height="99.99" version="1.1" xmlns="http://www.w3.org/2000/svg">
	<defs>
		<linearGradient id="grad" x1="%" x2="0" y1="0" y2="100%">
			<stop offset="0" stop-color="rgb(138,174,90)" />
			<stop offset="100%" stop-color="rgb(115,174,90)" />
		</linearGradient>
	</defs>
	<path d="m50 0c-1.073 0-2.146 0.3489-3.039 1.045l-7.234 5.613h-18.06c-2.76 0-5 2.239-5 5v12.9l-16.02 12.45c-0.028 0.021-0.03941 0.05317-0.06641 0.07617-0.085 0.08-0.1606 0.1677-0.2266 0.2637-0.064 0.078-0.119 0.163-0.166 0.25-0.041 0.094-0.0737 0.1901-0.0957 0.2891-0.035 0.108-0.05836 0.219-0.06836 0.332 0 0.034-0.01953 0.06366-0.01953 0.09766v56.68c6e-3 0.537 0.09934 1.067 0.2773 1.574-0.383 0.577-0.3641 1.331 0.04492 1.889 0.41 0.559 1.124 0.8023 1.789 0.6113 0.842 0.602 1.852 0.9258 2.887 0.9258h90c1.04-2e-3 2.053-0.3295 2.896-0.9375 0.142 0.043 0.2885 0.06631 0.4375 0.07031 0.609 4e-3 1.171-0.3283 1.461-0.8633 0.291-0.535 0.2647-1.186-0.07031-1.695 0.178-0.507 0.2703-1.037 0.2773-1.574v-56.67h-0.001953c0-0.035-0.01753-0.06466-0.01953-0.09766-0.01-0.116-0.03336-0.2298-0.06836-0.3398-0.023-0.099-0.05375-0.1951-0.09375-0.2891-0.047-0.087-0.105-0.172-0.168-0.25-0.065-0.096-0.1416-0.1837-0.2266-0.2637-0.026-0.023-0.03841-0.05517-0.06641-0.07617l-16.02-12.45v-12.9c0-2.761-2.238-5-5-5h-18.06l-7.23-5.613c-0.8935-0.696-1.966-1.045-3.039-1.045zm-0.007812 3.328c0.3517 0 0.7031 0.1147 0.9941 0.3457l3.846 2.984h-9.668l3.834-2.984c0.291-0.231 0.6424-0.3457 0.9941-0.3457zm-28.33 6.664h56.67c0.921 0 1.666 0.746 1.666 1.666v30c0 0.92 0.746 1.666 1.666 1.666 0.921 0 1.668-0.746 1.668-1.666v-12.88l11.72 9.109-27.8 21.59c-0.727 0.564-0.857 1.613-0.293 2.34 0.565 0.727 1.611 0.858 2.338 0.293l27.36-21.24v53.19l-43.63-33.88c-1.786-1.39-4.286-1.39-6.072 0l-43.63 33.88v-53.19l27.31 21.21c0.728 0.564 1.776 0.4331 2.34-0.2949 0.565-0.727 0.4331-1.776-0.2949-2.34l-27.75-21.55 11.72-9.109v12.88c0 0.92 0.746 1.666 1.666 1.666 0.921 0 1.668-0.746 1.668-1.666v-30c0-0.92 0.746-1.666 1.666-1.666zm11.67 8.334c-0.92 0-1.666 0.745-1.666 1.666 0 0.92 0.746 1.666 1.666 1.666h33.34c0.92 0 1.666-0.746 1.666-1.666 0-0.921-0.746-1.666-1.666-1.666h-33.34zm0 10c-0.92 0-1.666 0.745-1.666 1.666 0 0.92 0.746 1.666 1.666 1.666h33.34c0.92 0 1.666-0.746 1.666-1.666 0-0.921-0.746-1.666-1.666-1.666h-33.34zm18.33 10c-0.92 0-1.666 0.746-1.666 1.666 0 0.92 0.746 1.668 1.666 1.668h15c0.92 0 1.666-0.748 1.666-1.668 0-0.92-0.746-1.666-1.666-1.666h-15zm-1.672 24.13c0.351 0 0.7012 0.1142 0.9922 0.3438l43.6 33.86h-89.18l43.59-33.86c0.291-0.2295 0.6431-0.3438 0.9941-0.3438z" fill="url(#grad)"/>
</svg>
