<svg 
 xmlns="http://www.w3.org/2000/svg"
 xmlns:xlink="http://www.w3.org/1999/xlink"
 width="22px" height="30px">
<path fill-rule="evenodd"  fill="rgb(95, 113, 125)"
 d="M16.332,13.200 L5.132,13.200 C4.360,13.200 3.733,12.573 3.733,11.800 L3.733,7.000 C3.733,3.140 6.873,-0.000 10.732,-0.000 C14.593,-0.000 17.733,3.140 17.733,7.000 L17.733,11.800 C17.733,12.573 17.106,13.200 16.332,13.200 ZM14.933,7.000 C14.933,4.684 13.049,2.800 10.732,2.800 C8.417,2.800 6.533,4.684 6.533,7.000 L6.533,10.400 L14.933,10.400 L14.933,7.000 Z"/>
<path fill-rule="evenodd"  fill="rgb(52, 61, 67)"
 d="M10.732,-0.000 L10.732,2.800 C13.049,2.800 14.933,4.684 14.933,7.000 L14.933,10.400 L10.732,10.400 L10.732,13.200 L16.332,13.200 C17.106,13.200 17.733,12.573 17.733,11.800 L17.733,7.000 C17.733,3.140 14.593,-0.000 10.732,-0.000 Z"/>
<path fill-rule="evenodd"  fill="rgb(172, 209, 123)"
 d="M20.066,10.400 L1.399,10.400 C0.627,10.400 -0.001,11.027 -0.001,11.800 L-0.001,28.600 C-0.001,29.373 0.627,30.000 1.399,30.000 L20.066,30.000 C20.839,30.000 21.465,29.373 21.465,28.600 L21.465,11.800 C21.465,11.027 20.839,10.400 20.066,10.400 Z"/>
<path fill-rule="evenodd"  fill="rgb(138, 174, 90)"
 d="M20.066,10.400 L10.732,10.400 L10.732,30.000 L20.066,30.000 C20.839,30.000 21.466,29.373 21.466,28.600 L21.466,11.800 C21.466,11.027 20.839,10.400 20.066,10.400 Z"/>
<path fill-rule="evenodd"  fill="rgb(255, 255, 255)"
 d="M9.741,23.583 L9.741,23.583 C9.370,23.583 9.013,23.436 8.752,23.173 L6.768,21.190 C6.221,20.643 6.221,19.756 6.768,19.210 C7.315,18.663 8.201,18.663 8.748,19.210 L9.742,20.203 L12.718,17.227 C13.264,16.680 14.151,16.680 14.698,17.227 C15.244,17.773 15.244,18.660 14.698,19.207 L10.731,23.173 C10.469,23.436 10.112,23.583 9.741,23.583 Z"/>
<path fill-rule="evenodd"  fill="rgb(255, 255, 255)"
 d="M14.698,19.207 C15.244,18.660 15.244,17.773 14.698,17.227 C14.151,16.680 13.264,16.680 12.718,17.227 L10.732,19.212 L10.732,23.172 L14.698,19.207 Z"/>
</svg>