<svg width="985" height="450" version="1.1" viewBox="0 0 985 450" xmlns="http://www.w3.org/2000/svg">
 <clipPath id="clip">
  <path id="g-letter" d="m384.7 225.3v159.1c-40.72 40.72-96.97 65.93-159.1 65.93-124.2 0-225-100.8-225-225s100.8-225 225-225c62.09 0 118.3 25.2 159.1 65.93l-70.71 70.71c-22.62-22.62-53.86-36.62-88.34-36.62-68.97 0-125 55.99-125 125s55.99 125 125 125c20.82 0 40.46-5.103 57.73-14.13v-110.8z"/>
 </clipPath>
 <g id="main-letter" clip-path="url(#clip)">
  <path d="m416.9 12.11v9.973l-84.15-26.89h70.38z" fill="#8eb756"/>
  <path d="m416.9 12.11v9.973l-84.15-26.89h70.38zm-77.74-15.92 76.74 24.52v-8.248l-13.25-16.27z" fill="#fff"/>
  <path d="m416.9 22.08v8.438l-86.65 72.78-82.95-108.1h85.44z" fill="#a5ce6e"/>
  <path d="m416.9 22.08v8.438l-86.65 72.78-82.95-108.1h85.44zm-167.6-25.89 81.07 105.7 85.5-71.81v-7.243l-83.31-26.62z" fill="#fff"/>
  <path d="m416.9 43.75v108.4l-50.4 7.192z" fill="#8aae5a"/>
  <path d="m416.9 152.1-50.4 7.192 50.4-115.5zm-48.77 5.948 47.77-6.816v-102.7z" fill="#fff"/>
  <path d="m416.9 152.1v21.96l-43.5 6.041-6.904-20.81z" fill="#637b42"/>
  <path d="m416.9 174.1-43.5 6.041-6.904-20.81 50.4-7.192zm-49.08-13.95 6.271 18.88 41.81-5.807v-19.94z" fill="#fff"/>
  <path d="m416.9 174.1v8.438l-43.5-2.397z" fill="#8eb756"/>
  <path d="m416.9 182.5-43.5-2.397 43.5-6.041zm-33.13-2.828 32.13 1.771v-6.233z" fill="#fff"/>
  <path d="m373.4 180.1 43.5 69.81v-67.41z" fill="#a5ce6e"/>
  <path d="m416.9 182.5v67.41l-43.5-69.81zm-0.9973 63.91v-62.97l-40.63-2.239z" fill="#fff"/>
  <path d="m416.9 249.9v41.71l-95.76-9.397 52.26-102.1z" fill="#8aae5a"/>
  <path d="m416.9 249.9v41.71l-95.76-9.397 52.26-102.1zm-94.19 31.46 93.2 9.146v-40.32l-42.41-68.07z" fill="#fff"/>
  <path d="m321.2 282.2 77.86 51.01 17.89-15.73v-25.89z" fill="#8eb756"/>
  <path d="m416.9 291.6v25.89l-17.89 15.73-77.86-51.01zm-17.98 40.36 16.98-14.93v-24.53l-90.81-8.911z" fill="#fff"/>
  <path d="m399 333.2-71.73-29.15-6.137-21.86z" fill="#637b42"/>
  <path d="m399 333.2-71.73-29.15-6.137-21.86zm-70.89-29.89 61.74 25.1-67.03-43.92z" fill="#fff"/>
  <path d="m370.3 456.7-28.96-79.87 57.73-43.63-7 123.5z" fill="#8eb756"/>
  <path d="m392 456.7h-21.77l-28.96-79.87 57.73-43.63zm-49.54-79.51 28.47 78.52h20.12l6.827-120.4z" fill="#fff"/>
  <path d="m330.3 103.3 36.25 56 50.4-115.5v-13.23z" fill="#637b42"/>
  <path d="m416.9 43.75-50.4 115.5-36.25-56 86.65-72.78zm-85.32 59.75 34.75 53.7 49.58-113.7v-10.88z" fill="#fff"/>
  <path d="m341.3 376.9-14-72.78 71.73 29.15z" fill="#a5ce6e"/>
  <path d="m399 333.2-57.73 43.63-14-72.78zm-57.05 41.86 55.04-41.6-68.39-27.79z" fill="#fff"/>
  <path d="m327.3 304.1-117.2 4.795 44.75 100.8z" fill="#8eb756"/>
  <path d="m254.8 409.7-44.75-100.8 117.2-4.795zm-43.24-99.85 43.43 97.81 70.31-102.5z" fill="#fff"/>
  <path d="m341.3 376.9-86.46 32.81 72.46-105.6z" fill="#8aae5a"/>
  <path d="m341.3 376.9-86.46 32.81 72.46-105.6zm-83.82 30.74 82.68-31.37-13.39-69.6z" fill="#fff"/>
  <path d="m325.4 456.7 15.92-79.87 28.96 79.87z" fill="#8eb756"/>
  <path d="m370.3 456.7h-44.88l15.92-79.87zm-43.66-0.9992h42.23l-27.25-75.16z" fill="#fff"/>
  <path d="m309.3 456.7-15.88-23.62 47.89-56.24-15.92 79.87z" fill="#a5ce6e"/>
  <path d="m325.4 456.7h-16.09l-15.88-23.62 47.89-56.24zm-30.71-23.55 15.15 22.55h14.74l15.01-75.29z" fill="#fff"/>
  <path d="m299.3 456.7-10.01-9.878 4.152-13.74 15.88 23.62z" fill="#637b42"/>
  <path d="m309.3 456.7h-10.02l-10.01-9.878 4.152-13.74zm-18.9-10.17 9.292 9.167h7.729l-13.65-20.31z" fill="#fff"/>
  <path d="m286.8 456.7 2.455-9.878 10.01 9.878z" fill="#637b42"/>
  <path d="m299.3 456.7h-12.47l2.455-9.878zm-11.18-0.9992h8.745l-7.029-6.934z" fill="#fff"/>
  <path d="m213.7 456.7-14.17-23.2 89.71 13.32-2.455 9.878z" fill="#8eb756"/>
  <path d="m289.3 446.9-2.455 9.878h-73.09l-14.17-23.2zm-74.98 8.878h71.75l1.995-8.051-86.51-12.84z" fill="#fff"/>
  <path d="m190.3 456.7 9.269-23.2 14.17 23.2z" fill="#637b42"/>
  <path d="m213.7 456.7h-23.44l9.269-23.2zm-21.96-0.9992h20.18l-12.2-19.97z" fill="#fff"/>
  <path d="m199.6 433.5 66.48-14.38 23.23 27.7z" fill="#8aae5a"/>
  <path d="m289.3 446.9-89.71-13.32 66.48-14.38zm-84.14-13.5 81.67 12.13-21.14-25.22z" fill="#fff"/>
  <path d="m266 419.2 27.38 13.96-4.152 13.74z" fill="#a5ce6e"/>
  <path d="m293.4 433.1-4.152 13.74-23.23-27.7zm-4.574 11.69 3.375-11.17-22.26-11.35z" fill="#fff"/>
  <path d="m266 419.2 75.27-42.29-47.89 56.24z" fill="#8eb756"/>
  <path d="m293.4 433.1-27.38-13.96 75.27-42.29zm-25.26-14 25.01 12.75 43.75-51.38z" fill="#fff"/>
  <path d="m254.8 409.7 86.46-32.81-75.27 42.29z" fill="#637b42"/>
  <path d="m266 419.2-11.19-9.483 86.46-32.81zm-9.248-9.149 9.364 7.937 63-35.39z" fill="#fff"/>
  <path d="m199.6 433.5 55.3-23.87 11.19 9.483z" fill="#8eb756"/>
  <path d="m266 419.2-66.48 14.38 55.3-23.87zm-56.67 11.24 54.48-11.79-9.167-7.77z" fill="#fff"/>
  <path d="m181.7 395.8 73.2 13.85-55.3 23.87z" fill="#637b42"/>
  <path d="m254.8 409.7-55.3 23.87-17.9-37.72zm-54.81 22.57 51.41-22.19-68.06-12.88z" fill="#fff"/>
  <path d="m181.7 395.8 28.45-86.94 44.75 100.8z" fill="#8aae5a"/>
  <path d="m254.8 409.7-73.2-13.85 28.45-86.94zm-71.89-14.62 70.2 13.28-42.92-96.67z" fill="#fff"/>
  <path d="m23.45-4.81-32.08 21.14 5.055-21.14z" fill="#8eb756"/>
  <path d="m-8.632 16.33 5.055-21.14h27.03zm5.845-20.14-4.283 17.91 27.19-17.91z" fill="#fff"/>
  <path d="m-8.632 16.33 110-21.14h-77.94z" fill="#a5ce6e"/>
  <path d="m-8.632 16.33 32.08-21.14h77.94zm32.38-20.14-27.64 18.21 94.77-18.21z" fill="#fff"/>
  <path d="m181.7 395.8-125.3-57.06-8.737 78.95z" fill="#8aae5a"/>
  <path d="m181.7 395.8-134 21.89 8.737-78.95zm-132.9 20.69 129.5-21.15-121-55.12z" fill="#fff"/>
  <path d="m47.62 417.7-56.26 12.36v-27.28l64.99-64.03z" fill="#637b42"/>
  <path d="m47.62 417.7-56.26 12.36v-27.28l64.99-64.03zm-55.26-14.5v25.61l54.34-11.94 8.348-75.44z" fill="#fff"/>
  <path d="m-8.632 402.8v-74.79l64.99 10.76z" fill="#8eb756"/>
  <path d="m56.36 338.8-64.99 64.03v-74.79zm-63.99 61.64 61.89-60.98-61.89-10.25z" fill="#fff"/>
  <path d="m56.36 338.8 153.7-29.88-28.45 86.94z" fill="#8eb756"/>
  <path d="m181.7 395.8-125.3-57.06 153.7-29.88zm-122-56.67 121.4 55.3 27.57-84.26z" fill="#fff"/>
  <path d="m56.36 338.8-28.34-89.5 182.1 59.61-153.7 29.88" fill="#a5ce6e" stroke="#fff" stroke-width=".9973px"/>
  <path d="m28.02 249.3-36.65 17.79v60.94l64.99 10.76z" fill="#8aae5a"/>
  <path d="m56.36 338.8-64.99-10.76v-60.94l36.65-17.79zm-63.99-71.08v59.47l62.55 10.36-27.5-86.84z" fill="#fff"/>
  <path d="m-8.632 236.3 36.65 13-36.65 17.79z" fill="#637b42"/>
  <path d="m28.02 249.3-36.65 17.79v-30.79zm-35.65 16.2 33.07-16.05-33.07-11.73z" fill="#fff"/>
  <path d="m28.02 249.3 91.2-80.76 90.88 140.4z" fill="#637b42"/>
  <path d="m210.1 308.9-182.1-59.61 91.2-80.76zm-180.1-60.02 177.7 58.19-88.71-137z" fill="#fff"/>
  <path d="m77.56 174.1 41.66-5.541-91.2 80.76z" fill="#8eb756"/>
  <path d="m28.02 249.3 49.54-75.22 41.66-5.541zm50.13-74.29-45.14 68.54 83.1-73.59z" fill="#fff"/>
  <path d="m8.629 180.8 68.93-6.712-49.54 75.22z" fill="#8aae5a"/>
  <path d="m28.02 249.3-19.39-68.51 68.93-6.712zm-18.1-67.63 18.47 65.25 47.19-71.65z" fill="#fff"/>
  <path d="m8.629 180.8-17.26 16.19v39.32l36.65 13z" fill="#8eb756"/>
  <path d="m28.02 249.3-36.65-13v-39.32l17.26-16.19zm-35.65-51.88v38.17l34.16 12.12-18.42-65.06z" fill="#fff"/>
  <path d="m-8.632 131 17.26 49.76-17.26 16.19z" fill="#8aae5a"/>
  <path d="m8.629 180.8-17.26 16.19v-65.95zm-16.26 13.89 15.1-14.17-15.1-43.54z" fill="#fff"/>
  <path d="m8.629 180.8 68.93-6.712-57.85-90.67z" fill="#a5ce6e"/>
  <path d="m77.56 174.1-68.93 6.712 11.08-97.38zm-67.8 5.597 66.08-6.434-55.46-86.92z" fill="#fff"/>
  <path d="m77.56 174.1 41.66-5.541-99.51-85.13z" fill="#637b42"/>
  <path d="m119.2 168.5-41.66 5.541-57.85-90.67zm-41.16 4.466 38.81-5.161-92.7-79.3z" fill="#fff"/>
  <path d="m119.2 168.5 52.1 7.352 6.605-55.19z" fill="#8aae5a"/>
  <path d="m171.3 175.9-52.1-7.352 58.71-47.84zm-49.7-8.022 48.82 6.89 6.19-51.72z" fill="#fff"/>
  <path d="m190.3 456.7h-91.58l-51.08-39.02 7.557-1.234 144.4 17.06z" fill="#a5ce6e"/>
  <path d="m199.6 433.5-9.269 23.2h-91.58l-51.08-39.02 7.557-1.234zm-149.5-15.21 48.97 37.41h90.56l8.534-21.36-142.9-16.89z" fill="#fff"/>
  <path d="m199.6 433.5-17.9-37.72-126.5 20.66z" fill="#8eb756"/>
  <path d="m199.6 433.5-144.4-17.06 126.5-20.66zm-137.2-17.22 135.5 16.01-16.8-35.4z" fill="#fff"/>
  <path d="m47.62 417.7-56.26 12.36v26.66h45.5z" fill="#8eb756"/>
  <path d="m36.86 456.7h-45.5v-26.66l56.26-12.36zm-44.5-25.86v24.86h43.73l10.12-36.69z" fill="#fff"/>
  <path d="m36.86 456.7 10.76-39.02 51.08 39.02z" fill="#8aae5a"/>
  <path d="m98.7 456.7h-61.84l10.76-39.02zm-60.53-0.9992h57.57l-47.55-36.33z" fill="#fff"/>
  <path d="m327.3 304.1-6.137-21.86-111.1 26.66z" fill="#a5ce6e"/>
  <path d="m327.3 304.1-117.2 4.795 111.1-26.66zm-107 3.376 105.7-4.324-5.533-19.72z" fill="#fff"/>
  <path d="m210.1 308.9 87.69-105.4 23.38 78.75z" fill="#8aae5a"/>
  <path d="m321.2 282.2-111.1 26.66 87.69-105.4zm-108.4 24.98 107.1-25.71-22.54-75.95z" fill="#fff"/>
  <path d="m297.8 203.5 68.73-44.18 6.904 20.81-52.26 102.1z" fill="#a5ce6e"/>
  <path d="m373.4 180.1-52.26 102.1-23.38-78.75 68.73-44.18zm-74.46 23.81 22.45 75.64 50.93-99.53-6.367-19.19z" fill="#fff"/>
  <path d="m297.8 203.5-16.78-58.33 85.51 14.15z" fill="#8eb756"/>
  <path d="m366.5 159.3-68.73 44.18-16.78-58.33zm-68.14 42.61 65.42-42.05-81.39-13.47z" fill="#fff"/>
  <path d="m281 145.1-16.14 16.14 32.92 42.19z" fill="#637b42"/>
  <path d="m297.8 203.5-32.92-42.19 16.14-16.14zm-31.59-42.11 29.2 37.42-14.88-51.74z" fill="#fff"/>
  <path d="m281 145.1-35.32 18.86 19.18-2.717z" fill="#a5ce6e"/>
  <path d="m264.9 161.3-19.18 2.717 35.32-18.86zm-13.71 0.932 13.24-1.876 11.15-11.15z" fill="#fff"/>
  <path d="m245.7 164 52.1 39.48-32.92-42.19z" fill="#8eb756"/>
  <path d="m297.8 203.5-52.1-39.48 19.18-2.717zm-49.58-38.82 44.08 33.4-27.86-35.7z" fill="#fff"/>
  <path d="m245.7 164-35.59 144.9 87.69-105.4z" fill="#a5ce6e"/>
  <path d="m297.8 203.5-87.69 105.4 35.59-144.9zm-85.68 101.4 84.24-101.3-50.05-37.92z" fill="#fff"/>
  <path d="m245.7 164-74.37 11.86 38.78 133z" fill="#8aae5a"/>
  <path d="m210.1 308.9-38.78-133 74.37-11.86zm-37.5-132.2 37.42 128.4 34.34-139.8z" fill="#fff"/>
  <path d="m171.3 175.9-52.1-7.352 90.88 140.4z" fill="#a5ce6e"/>
  <path d="m171.3 175.9 38.78 133-90.88-140.4zm35.91 126.7-36.68-125.8-49.29-6.956z" fill="#fff"/>
  <path d="m366.5 159.3-36.25-56-49.27 41.85z" fill="#8aae5a"/>
  <path d="m366.5 159.3-85.51-14.15 49.27-41.85zm-83.22-14.79 81.15 13.43-34.4-53.14z" fill="#fff"/>
  <path d="m281 145.1-39.54-72.8 88.81 30.96z" fill="#8eb756"/>
  <path d="m330.3 103.3-49.27 41.85-39.54-72.8zm-48.97 40.29 47-39.92-84.72-29.53z" fill="#fff"/>
  <path d="m241.5 72.34-13.7-77.15h19.56l82.95 108.1z" fill="#8aae5a"/>
  <path d="m330.3 103.3-88.81-30.96-13.7-77.15h19.56zm-101.3-107.1 13.39 75.4 85.1 29.66-80.61-105.1z" fill="#fff"/>
  <path d="m227.8-4.81h-16.3l-11.23 40.3 41.23 36.85z" fill="#a5ce6e"/>
  <path d="m241.5 72.34-41.23-36.85 11.23-40.3h16.3zm-29.24-76.15-10.86 38.97 38.61 34.51-13.05-73.48z" fill="#fff"/>
  <path d="m200.2 35.49-17.53-40.3h28.77z" fill="#8eb756"/>
  <path d="m200.2 35.49-17.53-40.3h28.77zm-16.01-39.3 15.8 36.32 10.12-36.32z" fill="#fff"/>
  <path d="m200.2 35.49-73.97-40.3h56.44z" fill="#637b42"/>
  <path d="m200.2 35.49-73.97-40.3h56.44zm-70.05-39.3 67.97 37.03-16.11-37.03z" fill="#fff"/>
  <path d="m200.2 35.49-22.31 85.18 25.19-26.69z" fill="#8eb756"/>
  <path d="m203.1 93.99-25.19 26.69 22.31-85.18zm-23.23 23.15 22.21-23.53-2.537-51.58z" fill="#fff"/>
  <path d="m203.1 93.99 38.36-21.64-41.23-36.85z" fill="#8aae5a"/>
  <path d="m241.5 72.34-38.36 21.64-2.877-58.49zm-37.44 19.98 35.73-20.16-38.41-34.33z" fill="#fff"/>
  <path d="m177.9 120.7 67.76 43.33-74.37 11.86z" fill="#a5ce6e"/>
  <path d="m245.7 164-74.37 11.86 6.605-55.19zm-73.22 10.66 70.47-11.24-64.21-41.06z" fill="#fff"/>
  <path d="m245.7 164-42.58-70.02-25.19 26.69z" fill="#637b42"/>
  <path d="m245.7 164-67.76-43.33 25.19-26.69zm-66.21-43.52 63.11 40.36-39.65-65.21z" fill="#fff"/>
  <path d="m245.7 164-4.221-91.66-38.36 21.64z" fill="#8eb756"/>
  <path d="m245.7 164-42.58-70.02 38.36-21.64zm-41.19-69.65 40.01 65.79-3.967-86.13z" fill="#fff"/>
  <path d="m245.7 164 35.32-18.86-39.54-72.8z" fill="#a5ce6e"/>
  <path d="m281 145.1-35.32 18.86-4.221-91.66zm-34.39 17.23 33.03-17.64-36.98-68.09z" fill="#fff"/>
  <path d="m200.2 35.49-73.97-40.3h-4.383l56.05 125.5z" fill="#a5ce6e"/>
  <path d="m200.2 35.49-22.31 85.18-56.05-125.5h4.383zm-76.81-39.3 54.26 121.5 21.39-81.67-73.06-39.81z" fill="#fff"/>
  <path d="m177.9 120.7-158.2-37.29 99.51 85.13z" fill="#a5ce6e"/>
  <path d="m177.9 120.7-58.71 47.84-99.51-85.13zm-58.69 46.54 56.49-46.03-152.2-35.88z" fill="#fff"/>
  <path d="m177.9 120.7-56.05-125.5h-20.49l-110 21.14 28.34 67.06z" fill="#8aae5a"/>
  <path d="m177.9 120.7-158.2-37.29-28.34-67.06 110-21.14h20.49zm-76.44-124.5-108.7 20.89 27.66 65.45 155.8 36.71-54.96-123z" fill="#fff"/>
  <path d="m19.71 83.38-28.34 6.083v-73.14z" fill="#637b42"/>
  <path d="m19.71 83.38-28.34 6.083v-73.14zm-27.34 4.846 25.95-5.57-25.95-61.4z" fill="#fff"/>
  <path d="m19.71 83.38-11.08 97.38-17.26-49.76v-41.54z" fill="#8eb756"/>
  <path d="m8.629 180.8-17.26-49.76v-41.54l28.34-6.083zm-16.26-90.49v40.57l15.76 45.44 10.43-91.63z" fill="#fff"/>
 </g>
 <g id="text">
  <path d="m932.1 147.5c-1.851 0-3.404-0.2977-4.659-0.893-1.262-0.5889-2.511-1.624-3.74-3.093l-48.9-61.86c0.1877 1.851 0.3236 3.643 0.3883 5.371 0.0712 1.734 0.11 3.359 0.11 4.879v55.59h-21.21v-103.7h12.67c1.042 0 1.922 0.0453 2.634 0.1424 0.7118 0.0906 1.352 0.2718 1.922 0.5306 0.5695 0.2653 1.113 0.6277 1.637 1.107 0.5242 0.4724 1.113 1.113 1.78 1.922l49.32 62.29c-0.2329-1.993-0.3947-3.928-0.4917-5.805-0.0971-1.87-0.1424-3.643-0.1424-5.3v-54.88h21.21v103.7zm-159.6-103.7h66.77v18.51h-42.57v24.2h32.6v17.8h-32.6v24.7h42.57v18.51h-66.77zm-81.58 0h66.77v18.51h-42.57v24.2h32.6v17.8h-32.6v24.7h42.57v18.51h-66.77zm-30.82 67.62 22.07 36.09h-21.78c-4.032 0-6.931-1.521-8.684-4.556l-17.23-30.11c-0.8089-1.281-1.708-2.22-2.705-2.815-0.9966-0.5889-2.42-0.8866-4.271-0.8866h-6.122v38.37h-24.06v-103.7h33.74c7.494 0 13.89 0.7701 19.18 2.31 5.293 1.547 9.61 3.689 12.96 6.439 3.346 2.757 5.772 6.005 7.293 9.759 1.514 3.747 2.271 7.83 2.271 12.24 0 3.378-0.44 6.555-1.346 9.545-0.906 2.99-2.233 5.753-3.993 8.29-1.754 2.543-3.922 4.808-6.51 6.801-2.588 1.993-5.559 3.63-8.93 4.912 1.56 0.8024 3.035 1.812 4.413 3.022 1.372 1.21 2.614 2.647 3.702 4.31zm-15.27-45.77c-2.964-2.563-7.552-3.85-13.77-3.85h-9.681v30.76h9.681c3.268 0 6.064-0.4206 8.361-1.249 2.304-0.8283 4.193-1.98 5.662-3.449 1.469-1.475 2.537-3.197 3.203-5.164 0.6665-1.967 0.9901-4.09 0.9901-6.368 0-4.556-1.475-8.115-4.446-10.68zm-74.17 4.627c-1.728 0.3818-3.592-0.04529-5.585-1.281-1.903-1.139-3.689-2.123-5.371-2.957-1.689-0.8283-3.41-1.508-5.164-2.025-1.754-0.5242-3.611-0.8995-5.559-1.139-1.941-0.2394-4.122-0.3559-6.542-0.3559-4.51 0-8.568 0.7959-12.17 2.381-3.604 1.592-6.678 3.837-9.221 6.73-2.537 2.893-4.491 6.368-5.869 10.43-1.372 4.057-2.064 8.581-2.064 13.56 0 5.5 0.7636 10.39 2.271 14.66 1.521 4.271 3.669 7.875 6.452 10.82 2.776 2.938 6.096 5.183 9.959 6.724 3.87 1.54 8.154 2.317 12.85 2.317 2.893 0 5.52-0.2847 7.862-0.8542 2.349-0.5695 4.64-1.333 6.872-2.278v-15.73h-10.25c-1.521 0-2.705-0.4077-3.559-1.21-0.8607-0.8089-1.281-1.831-1.281-3.061v-13.24h36.87v43.78c-5.313 3.889-10.98 6.711-16.98 8.471-5.999 1.754-12.28 2.634-18.82 2.634-8.542 0-16.31-1.346-23.32-4.025-6.995-2.679-12.99-6.381-17.97-11.1-4.983-4.724-8.827-10.32-11.53-16.8s-4.057-13.51-4.057-21.1c0-7.74 1.275-14.84 3.844-21.32 2.563-6.478 6.225-12.06 11-16.76 4.769-4.698 10.54-8.354 17.29-10.96 6.762-2.614 14.32-3.915 22.68-3.915 4.316 0 8.374 0.3559 12.17 1.068 3.799 0.7118 7.293 1.683 10.5 2.918 3.203 1.23 6.135 2.705 8.794 4.413 2.66 1.708 5.028 3.559 7.118 5.552l-6.976 10.6c-1.094 1.663-2.504 2.686-4.239 3.067z" fill="#8aae5a"/>
  <path d="m966.4 283.3c-2.09 0-3.773-0.4918-5.054-1.462-1.281-0.9707-2.258-2.22-2.918-3.734l-6.128-18.08h-39.43l-6.122 18.08c-0.5242 1.327-1.463 2.524-2.809 3.592-1.359 1.068-3.029 1.605-5.022 1.605h-37.44c-4.032 0-6.931-1.521-8.684-4.556l-17.23-30.11c-0.8089-1.281-1.715-2.22-2.705-2.815-0.9966-0.5889-2.42-0.8866-4.271-0.8866h-6.122v38.37h-24.06v-103.7h33.74c7.494 0 13.89 0.7701 19.18 2.31 5.293 1.54 9.61 3.689 12.96 6.445 3.352 2.75 5.779 5.999 7.299 9.752 1.521 3.747 2.271 7.83 2.271 12.24 0 3.365-0.44 6.549-1.346 9.539s-2.226 5.753-3.986 8.29c-1.76 2.543-3.928 4.808-6.516 6.801-2.588 1.993-5.559 3.63-8.937 4.912 1.572 0.8089 3.041 1.812 4.42 3.022 1.372 1.21 2.614 2.647 3.702 4.31l20.14 32.95 38.94-100.6h24.63l40.15 103.7zm-120.5-81.86c-2.964-2.569-7.552-3.844-13.77-3.844h-9.681v30.75h9.681c3.274 0 6.064-0.4142 8.361-1.249 2.304-0.8283 4.193-1.98 5.662-3.449 1.469-1.469 2.537-3.197 3.203-5.164 0.6665-1.967 0.9901-4.09 0.9901-6.368 0-4.556-1.475-8.115-4.446-10.68zm91.3 13.81c-0.7119-1.805-1.475-3.928-2.278-6.374-0.8089-2.44-1.611-5.086-2.42-7.934-0.7118 2.893-1.469 5.572-2.278 8.044-0.8024 2.466-1.566 4.601-2.278 6.406l-9.539 28.26h28.4zm-180.2 68.05h-24.05v-84.64h-29.18v-19.08h82.43v19.08h-29.19zm-76.09-11.03c-3.844 3.844-8.516 6.834-14.02 8.963-5.507 2.142-11.69 3.21-18.58 3.21-6.931 0-13.15-1.068-18.65-3.21-5.507-2.129-10.18-5.119-14.03-8.963-3.837-3.844-6.782-8.425-8.82-13.74-2.045-5.313-3.061-11.16-3.061-17.51v-61.43h24.06v61.35c0 3.656 0.4594 6.918 1.385 9.791 0.9318 2.873 2.265 5.319 4.019 7.332 1.76 2.019 3.909 3.559 6.452 4.627 2.53 1.068 5.416 1.605 8.645 1.605 3.229 0 6.109-0.5371 8.645-1.605 2.543-1.068 4.692-2.595 6.445-4.588 1.754-1.993 3.1-4.426 4.025-7.299 0.9189-2.873 1.385-6.135 1.385-9.784v-61.43h24.06v61.43c0 6.355-1.035 12.2-3.1 17.51-2.058 5.313-5.015 9.894-8.859 13.74zm-113.1 10.14c-1.262-0.5889-2.511-1.624-3.74-3.093l-48.9-61.86c0.1877 1.851 0.3236 3.643 0.3948 5.371 0.0647 1.734 0.1035 3.359 0.1035 4.879v55.59h-21.21v-103.7h12.67c1.042 0 1.922 0.0453 2.634 0.1424 0.7118 0.0906 1.346 0.2718 1.922 0.5306 0.5695 0.2653 1.12 0.6277 1.637 1.107 0.5242 0.4724 1.113 1.113 1.78 1.922l49.32 62.29c-0.233-1.993-0.3948-3.928-0.4983-5.805-0.0906-1.87-0.1359-3.643-0.1359-5.3v-54.88h21.21v103.7h-12.53c-1.844 0-3.397-0.2977-4.653-0.893z" fill="#637b42"/>
  <path d="m875.7 370.1c-1.663 4.316-4.2 8.018-7.617 11.1-3.417 3.08-7.746 5.494-12.99 7.222-5.242 1.734-11.45 2.601-18.61 2.601h-12.53v34.67h-24.06v-103.7h36.59c7.306 0 13.58 0.8671 18.83 2.595 5.235 1.734 9.558 4.122 12.95 7.157 3.391 3.035 5.902 6.62 7.513 10.75 1.611 4.129 2.42 8.587 2.42 13.38 0 5.17-0.8283 9.914-2.491 14.24zm-22.64-20.71c-0.7054-1.948-1.786-3.617-3.236-5.022-1.443-1.398-3.274-2.478-5.481-3.236-2.207-0.7636-4.828-1.139-7.862-1.139h-12.53v32.89h12.53c6.264 0 10.77-1.495 13.52-4.485 2.75-2.99 4.122-7.17 4.122-12.53 0-2.375-0.3494-4.536-1.068-6.478zm-82.15 62.18c-4.692 4.769-10.35 8.51-16.97 11.21-6.626 2.705-13.97 4.057-22.03 4.057-8.07 0-15.43-1.352-22.07-4.057-6.639-2.705-12.33-6.445-17.05-11.21-4.717-4.769-8.374-10.38-10.96-16.83-2.582-6.458-3.876-13.43-3.876-20.93 0-7.5 1.294-14.48 3.876-20.93 2.588-6.445 6.245-12.05 10.96-16.79 4.724-4.75 10.41-8.471 17.05-11.18 6.639-2.705 14-4.057 22.07-4.057 8.063 0 15.41 1.365 22.03 4.09 6.614 2.731 12.28 6.465 16.97 11.21 4.705 4.743 8.348 10.34 10.93 16.8 2.588 6.452 3.883 13.4 3.883 20.86 0 7.494-1.294 14.47-3.883 20.93-2.582 6.452-6.225 12.06-10.93 16.83zm-11.81-51.61c-1.327-4.103-3.242-7.578-5.727-10.43-2.498-2.847-5.546-5.035-9.157-6.549-3.598-1.521-7.707-2.278-12.31-2.278-4.646 0-8.794 0.7571-12.42 2.278-3.63 1.514-6.685 3.702-9.176 6.549-2.498 2.847-4.4 6.322-5.733 10.43-1.327 4.109-1.993 8.723-1.993 13.85 0 5.17 0.6665 9.81 1.993 13.91 1.333 4.109 3.236 7.584 5.733 10.43 2.491 2.847 5.546 5.015 9.176 6.51 3.63 1.495 7.778 2.246 12.42 2.246 4.601 0 8.71-0.7507 12.31-2.246 3.611-1.495 6.659-3.663 9.157-6.51 2.485-2.847 4.4-6.322 5.727-10.43 1.327-4.103 1.993-8.743 1.993-13.91 0-5.125-0.6665-9.739-1.993-13.85zm-119.5 21.89h-42.14v43.85h-24.2v-103.7h24.2v43.35h42.14v-43.35h24.21v103.7h-24.21zm-119.5-22.64c2.161 0.9901 4.627 1.909 7.403 2.737 2.776 0.8283 5.617 1.754 8.51 2.776 2.899 1.022 5.727 2.22 8.503 3.598 2.776 1.372 5.248 3.132 7.403 5.268 2.161 2.135 3.902 4.73 5.235 7.791 1.327 3.061 1.993 6.749 1.993 11.07 0 4.789-0.8283 9.273-2.491 13.45-1.663 4.174-4.07 7.817-7.228 10.92-3.158 3.113-7.047 5.552-11.67 7.332-4.62 1.78-9.881 2.673-15.76 2.673-3.229 0-6.51-0.3365-9.862-0.9966-3.346-0.6665-6.581-1.605-9.713-2.815-3.132-1.21-6.076-2.64-8.827-4.303-2.75-1.663-5.151-3.514-7.189-5.552l7.118-11.25c0.5695-0.8089 1.314-1.482 2.246-2.032 0.9189-0.5436 1.928-0.8154 3.022-0.8154 1.424 0 2.86 0.4465 4.303 1.352 1.45 0.8995 3.087 1.896 4.918 2.99 1.825 1.087 3.922 2.09 6.29 2.99 2.381 0.8995 5.177 1.352 8.406 1.352 4.362 0 7.759-0.9642 10.18-2.886 2.42-1.922 3.63-4.97 3.63-9.144 0-2.42-0.6665-4.394-1.993-5.908-1.327-1.521-3.074-2.776-5.229-3.773-2.161-0.9966-4.62-1.877-7.371-2.634-2.75-0.7636-5.578-1.605-8.471-2.53-2.899-0.9254-5.721-2.064-8.471-3.417s-5.209-3.132-7.371-5.339c-2.155-2.207-3.902-4.957-5.229-8.257-1.327-3.294-1.993-7.364-1.993-12.2 0-3.896 0.783-7.688 2.349-11.39 1.566-3.702 3.863-7.002 6.905-9.894 3.035-2.899 6.762-5.209 11.18-6.944 4.413-1.728 9.467-2.595 15.16-2.595 3.177 0 6.277 0.2459 9.293 0.7442 3.009 0.4983 5.869 1.236 8.574 2.207 2.705 0.9772 5.235 2.135 7.578 3.488 2.349 1.352 4.452 2.886 6.303 4.595l-5.979 11.18c-0.7118 1.139-1.462 1.993-2.246 2.563s-1.793 0.8542-3.022 0.8542c-1.094 0-2.265-0.343-3.527-1.035-1.255-0.686-2.679-1.456-4.271-2.31-1.585-0.8542-3.404-1.631-5.442-2.317-2.045-0.6859-4.368-1.029-6.976-1.029-4.51 0-7.869 0.9577-10.08 2.88-2.207 1.922-3.307 4.523-3.307 7.798 0 2.084 0.66 3.818 1.993 5.196 1.327 1.372 3.067 2.563 5.229 3.559z" fill="#a5ce6e"/>
 </g>
</svg>
