<svg width="1.595mm" height="1.677mm" version="1.1" viewBox="0 0 1.595 1.677" xmlns="http://www.w3.org/2000/svg">
 <path d="m1.203 0.7681q-0.04445 0.0272-0.0889 0.0469-0.04198 0.0173-0.0889 0.0247 0.09631 0.0148 0.1778 0.0691l0.3926 0.2297-0.1432 0.247-0.3926-0.2297q-0.04445-0.0272-0.08396-0.0568-0.03704-0.0296-0.06421-0.0642 0.0321 0.0815 0.0321 0.1877v0.4544h-0.2914v-0.4519q0-0.0494 0.0049-0.0963 0.0074-0.0469 0.02223-0.0889-0.02716 0.0346-0.06421 0.0617-0.03704 0.0272-0.07902 0.0543l-0.3902 0.2272-0.1457-0.247 0.3926-0.2272q0.09384-0.0543 0.1778-0.0691-0.08643-0.0148-0.1778-0.0716l-0.3926-0.2297 0.1432-0.247 0.3926 0.2321q0.04445 0.0272 0.08149 0.0568 0.03704 0.0272 0.06668 0.0617-0.0321-0.0815-0.0321-0.1852v-0.4568h0.2914v0.4519q0 0.0519-0.0074 0.0988-0.0049 0.0469-0.02223 0.0889 0.02963-0.0346 0.06668-0.0617 0.03704-0.0272 0.07902-0.0543l0.3902-0.2272 0.1457 0.247z" fill="#ff5252"/>
</svg>
