<svg version="1.1" viewBox="0 0 83.6 30" xmlns="http://www.w3.org/2000/svg">
 <path d="m16.3 13.2h-11.2c-0.772 0-1.4-0.627-1.4-1.4v-4.8c0-3.86 3.14-7 7-7 3.86 0 7 3.14 7 7v4.8c0 0.773-0.627 1.4-1.4 1.4zm-1.4-6.2c0-2.32-1.88-4.2-4.2-4.2-2.32 0-4.2 1.88-4.2 4.2v3.4h8.4z" fill="#5f717d" fill-rule="evenodd"/>
 <path d="m10.7 0v2.8c2.32 0 4.2 1.88 4.2 4.2v3.4h-4.2v2.8h5.6c0.774 0 1.4-0.627 1.4-1.4v-4.8c0-3.86-3.14-7-7-7z" fill="#343d43" fill-rule="evenodd"/>
 <path d="m20.1 10.4h-18.7c-0.772 0-1.4 0.627-1.4 1.4v16.8c0 0.773 0.628 1.4 1.4 1.4h18.7c0.773 0 1.4-0.627 1.4-1.4v-16.8c0-0.773-0.626-1.4-1.4-1.4z" fill="#acd17b"/>
 <path d="m20.1 10.4h-9.33v19.6h9.33c0.773 0 1.4-0.627 1.4-1.4v-16.8c0-0.773-0.627-1.4-1.4-1.4z" fill="#8aae5a"/>
 <path d="m13.7 16.8c-0.358 0-0.715 0.137-0.988 0.41l-1.99 1.99-0.99 0.99-0.994-0.992c-0.547-0.547-1.43-0.547-1.98 0-0.547 0.546-0.547 1.43 0 1.98l1.98 1.98c0.261 0.263 0.617 0.408 0.988 0.408 0.371 0 0.728-0.145 0.99-0.408l2e-3 -2e-3 3.96-3.96c0.546-0.547 0.546-1.43 0-1.98-0.274-0.273-0.632-0.41-0.99-0.41z" fill="#fff"/>
 <g transform="translate(6.23 2.92)" fill="#8aae5a" aria-label="SSL">
  <path d="m34.4 0.928c-0.64-1e-8 -1.21 0.0995-1.71 0.297-0.496 0.192-0.915 0.45-1.26 0.775-0.341 0.325-0.599 0.695-0.775 1.11s-0.264 0.844-0.264 1.28c0 0.544 0.0753 1 0.225 1.38 0.149 0.368 0.344 0.677 0.584 0.928 0.245 0.245 0.523 0.445 0.832 0.6 0.309 0.149 0.626 0.278 0.951 0.385 0.325 0.101 0.642 0.194 0.951 0.279 0.309 0.0853 0.584 0.185 0.824 0.297 0.245 0.112 0.442 0.253 0.592 0.424s0.225 0.392 0.225 0.664c0 0.469-0.136 0.813-0.408 1.03-0.272 0.213-0.654 0.32-1.14 0.32-0.363 0-0.677-0.051-0.943-0.152-0.267-0.101-0.503-0.213-0.711-0.336-0.203-0.123-0.387-0.235-0.553-0.336-0.16-0.101-0.32-0.15-0.48-0.15-0.123 0-0.237 0.0317-0.344 0.0957-0.101 0.0587-0.184 0.132-0.248 0.223l-0.799 1.27c0.229 0.229 0.497 0.436 0.807 0.623 0.309 0.187 0.64 0.35 0.992 0.488 0.352 0.133 0.715 0.238 1.09 0.312 0.379 0.0747 0.751 0.111 1.11 0.111 0.661 0 1.25-0.0995 1.77-0.297 0.523-0.203 0.959-0.476 1.31-0.822 0.357-0.352 0.63-0.763 0.816-1.23 0.187-0.469 0.281-0.973 0.281-1.51 0-0.485-0.0753-0.899-0.225-1.24-0.149-0.347-0.346-0.641-0.592-0.881-0.24-0.24-0.517-0.437-0.832-0.592-0.309-0.155-0.628-0.288-0.953-0.4-0.325-0.117-0.644-0.22-0.959-0.311-0.309-0.096-0.587-0.2-0.832-0.312-0.24-0.112-0.435-0.246-0.584-0.4-0.149-0.155-0.225-0.349-0.225-0.584 0-0.368 0.124-0.658 0.369-0.871 0.251-0.219 0.628-0.328 1.13-0.328 0.293 0 0.556 0.0391 0.785 0.119 0.229 0.0747 0.431 0.16 0.607 0.256 0.181 0.096 0.342 0.184 0.48 0.264 0.144 0.0747 0.278 0.113 0.4 0.113 0.139-1e-7 0.251-0.0337 0.336-0.0977 0.0907-0.064 0.176-0.159 0.256-0.287l0.672-1.26c-0.208-0.192-0.446-0.362-0.713-0.512-0.261-0.155-0.544-0.286-0.848-0.393-0.304-0.112-0.627-0.195-0.969-0.248-0.336-0.0587-0.682-0.0879-1.04-0.0879zm8.88 0c-0.64-1e-8 -1.21 0.0995-1.71 0.297-0.496 0.192-0.915 0.45-1.26 0.775-0.341 0.325-0.599 0.695-0.775 1.11s-0.264 0.844-0.264 1.28c0 0.544 0.0753 1 0.225 1.38 0.149 0.368 0.344 0.677 0.584 0.928 0.245 0.245 0.523 0.445 0.832 0.6 0.309 0.149 0.626 0.278 0.951 0.385 0.325 0.101 0.642 0.194 0.951 0.279 0.309 0.0853 0.584 0.185 0.824 0.297 0.245 0.112 0.442 0.253 0.592 0.424s0.225 0.392 0.225 0.664c1e-6 0.469-0.136 0.813-0.408 1.03-0.272 0.213-0.654 0.32-1.14 0.32-0.363 0-0.677-0.051-0.943-0.152-0.267-0.101-0.503-0.213-0.711-0.336-0.203-0.123-0.387-0.235-0.553-0.336-0.16-0.101-0.32-0.15-0.48-0.15-0.123 0-0.237 0.0317-0.344 0.0957-0.101 0.0587-0.184 0.132-0.248 0.223l-0.799 1.27c0.229 0.229 0.497 0.436 0.807 0.623 0.309 0.187 0.64 0.35 0.992 0.488 0.352 0.133 0.715 0.238 1.09 0.312 0.379 0.0747 0.751 0.111 1.11 0.111 0.661 0 1.25-0.0995 1.77-0.297 0.523-0.203 0.959-0.476 1.31-0.822 0.357-0.352 0.63-0.763 0.816-1.23 0.187-0.469 0.281-0.973 0.281-1.51 0-0.485-0.0753-0.899-0.225-1.24-0.149-0.347-0.346-0.641-0.592-0.881-0.24-0.24-0.517-0.437-0.832-0.592-0.309-0.155-0.628-0.288-0.953-0.4-0.325-0.117-0.644-0.22-0.959-0.311-0.309-0.096-0.587-0.2-0.832-0.312-0.24-0.112-0.435-0.246-0.584-0.4-0.149-0.155-0.225-0.349-0.225-0.584 0-0.368 0.124-0.658 0.369-0.871 0.251-0.219 0.628-0.328 1.13-0.328 0.293 0 0.556 0.0391 0.785 0.119 0.229 0.0747 0.431 0.16 0.607 0.256 0.181 0.096 0.342 0.184 0.48 0.264 0.144 0.0747 0.278 0.113 0.4 0.113 0.139-1e-7 0.251-0.0337 0.336-0.0977 0.0907-0.064 0.176-0.159 0.256-0.287l0.672-1.26c-0.208-0.192-0.446-0.362-0.713-0.512-0.261-0.155-0.544-0.286-0.848-0.393-0.304-0.112-0.627-0.195-0.969-0.248-0.336-0.0587-0.682-0.0879-1.04-0.0879zm5.33 0.129v11.7h7.03v-2.16h-4.32v-9.5z" fill="#8aae5a"/>
 </g>
 <g transform="translate(14 .867)" fill="#a2a9ae" aria-label="Encryption">
  <path d="m57.5 20c-0.107 0-0.205 0.0211-0.299 0.0644-0.0933 0.04-0.176 0.0966-0.246 0.17-0.07 0.07-0.127 0.153-0.17 0.25-0.04 0.0933-0.0606 0.195-0.0606 0.305 0 0.107 0.0206 0.208 0.0606 0.305 0.0433 0.0933 0.0999 0.176 0.17 0.246 0.07 0.07 0.153 0.127 0.246 0.17 0.0933 0.04 0.192 0.0586 0.299 0.0586 0.11 0 0.214-0.0186 0.311-0.0586 0.1-0.0433 0.186-0.0999 0.256-0.17 0.0733-0.07 0.13-0.153 0.174-0.246 0.0433-0.0967 0.0644-0.198 0.0644-0.305 0-0.11-0.0211-0.211-0.0644-0.305-0.0433-0.0967-0.1-0.18-0.174-0.25-0.07-0.0733-0.156-0.13-0.256-0.17-0.0967-0.0433-0.201-0.0644-0.311-0.0644zm-35.1 0.205v7.23h4.56v-1.07h-3.21v-2.04h2.53v-1.04h-2.53v-2.01h3.21v-1.07zm31.4 0.529c-0.0733 0-0.133 0.018-0.18 0.0547-0.0467 0.0367-0.079 0.0876-0.0957 0.154l-0.26 1.4-0.826 0.135v0.49c0 0.0867 0.0236 0.152 0.0703 0.195 0.0467 0.0433 0.103 0.0644 0.17 0.0644h0.525v2.87c0 0.443 0.119 0.792 0.355 1.04 0.24 0.25 0.583 0.375 1.03 0.375 0.25 0 0.491-0.0386 0.725-0.115 0.233-0.0767 0.441-0.19 0.621-0.34l-0.371-0.6c-0.0267-0.0367-0.0509-0.0634-0.0742-0.0801-0.0233-0.02-0.0532-0.0293-0.0898-0.0293-0.03 0-0.0598 0.0093-0.0898 0.0293-0.03 0.0167-0.0655 0.0347-0.105 0.0547-0.0367 0.02-0.0814 0.0406-0.135 0.0606-0.05 0.0167-0.113 0.0254-0.189 0.0254-0.137 0-0.246-0.0448-0.326-0.135-0.0767-0.09-0.115-0.215-0.115-0.375v-2.78h2.38v4.21h1.23v-5.08h-3.62v-1.62zm-13 1.47c-0.3 0-0.559 0.089-0.779 0.266-0.22 0.173-0.411 0.412-0.574 0.719l-0.0703-0.58c-0.0167-0.117-0.0496-0.195-0.0996-0.238-0.05-0.0467-0.139-0.0703-0.266-0.0703h-0.725v5.13h1.23v-3.16c0.0567-0.137 0.116-0.257 0.18-0.363 0.0667-0.107 0.141-0.198 0.225-0.271 0.0867-0.0767 0.184-0.134 0.291-0.174s0.229-0.0606 0.365-0.0606c0.0933 0 0.188 0.0087 0.285 0.0254 0.1 0.0167 0.175 0.0254 0.225 0.0254 0.0533 0 0.095-0.0118 0.125-0.0352 0.0333-0.0267 0.0576-0.0709 0.0742-0.131l0.0801-0.926c-0.143-0.103-0.334-0.154-0.57-0.154zm9.31 0c-0.36 0-0.675 0.074-0.945 0.221-0.267 0.147-0.502 0.338-0.709 0.574l-0.0996-0.475c-0.05-0.15-0.156-0.225-0.316-0.225h-0.754v6.8h1.23v-2.1c0.16 0.157 0.341 0.279 0.541 0.369 0.203 0.0867 0.448 0.131 0.738 0.131 0.337 0 0.64-0.0678 0.91-0.201 0.273-0.137 0.505-0.324 0.695-0.564 0.193-0.24 0.342-0.523 0.445-0.85 0.103-0.327 0.154-0.681 0.154-1.06 0-0.42-0.0453-0.792-0.139-1.12-0.09-0.327-0.221-0.6-0.391-0.82-0.167-0.223-0.366-0.393-0.6-0.51-0.23-0.117-0.486-0.176-0.766-0.176zm-19.6 0.0156c-0.173 0-0.334 0.0155-0.48 0.0488s-0.286 0.0832-0.416 0.146c-0.127 0.0633-0.249 0.138-0.365 0.225-0.113 0.0867-0.221 0.182-0.324 0.289l-0.084-0.404c-0.05-0.15-0.156-0.225-0.316-0.225h-0.754v5.13h1.23v-3.71c0.167-0.167 0.343-0.298 0.529-0.395 0.187-0.0967 0.388-0.146 0.602-0.146 0.293 0 0.511 0.0864 0.654 0.26 0.143 0.17 0.215 0.413 0.215 0.727v3.26h1.23v-3.26c0-0.287-0.0386-0.548-0.115-0.785-0.0733-0.24-0.181-0.445-0.328-0.615-0.143-0.173-0.324-0.307-0.541-0.4-0.217-0.0967-0.464-0.145-0.744-0.145zm5.12 0c-0.403 0-0.76 0.0659-1.07 0.199-0.31 0.133-0.569 0.318-0.779 0.555-0.21 0.233-0.37 0.513-0.48 0.836-0.107 0.32-0.16 0.668-0.16 1.04 0 0.42 0.0597 0.795 0.18 1.12 0.123 0.327 0.29 0.603 0.5 0.83 0.21 0.227 0.454 0.4 0.734 0.52 0.28 0.117 0.58 0.176 0.896 0.176 0.18 0 0.359-0.0144 0.539-0.041 0.183-0.0267 0.359-0.0714 0.529-0.135 0.173-0.0667 0.34-0.153 0.5-0.26 0.16-0.11 0.309-0.244 0.445-0.404l-0.354-0.451c-0.05-0.0767-0.127-0.115-0.227-0.115-0.0767 0-0.146 0.0262-0.209 0.0762-0.06 0.0467-0.132 0.1-0.215 0.16-0.0833 0.0567-0.187 0.11-0.311 0.16-0.12 0.0467-0.278 0.0684-0.475 0.0684-0.197 0-0.375-0.036-0.531-0.109-0.157-0.0767-0.288-0.187-0.398-0.33-0.11-0.147-0.196-0.326-0.256-0.539-0.0567-0.213-0.084-0.457-0.084-0.73 0-0.263 0.0267-0.498 0.0801-0.705 0.0533-0.21 0.132-0.388 0.238-0.535 0.11-0.147 0.247-0.257 0.41-0.334 0.163-0.08 0.354-0.121 0.57-0.121 0.17 0 0.312 0.0206 0.426 0.0606 0.117 0.0367 0.215 0.0789 0.299 0.129 0.0833 0.0467 0.155 0.0909 0.215 0.131 0.06 0.0367 0.122 0.0547 0.186 0.0547 0.0667 0 0.117-0.0124 0.15-0.0391 0.0367-0.0267 0.0727-0.0647 0.109-0.111l0.326-0.449c-0.23-0.23-0.491-0.406-0.781-0.529-0.287-0.123-0.621-0.186-1-0.186zm25.9 0c-0.383 0-0.732 0.0622-1.04 0.186-0.313 0.123-0.581 0.297-0.805 0.523-0.22 0.227-0.392 0.503-0.516 0.83-0.12 0.327-0.18 0.692-0.18 1.1 0 0.407 0.0597 0.773 0.18 1.1 0.123 0.327 0.296 0.606 0.516 0.836 0.223 0.23 0.491 0.406 0.805 0.529 0.313 0.123 0.662 0.186 1.04 0.186 0.38 0 0.725-0.0622 1.04-0.186 0.313-0.123 0.579-0.299 0.799-0.529 0.223-0.23 0.396-0.509 0.516-0.836s0.18-0.693 0.18-1.1c0-0.403-0.0597-0.769-0.18-1.1-0.12-0.327-0.292-0.603-0.516-0.83-0.22-0.227-0.485-0.4-0.799-0.523-0.31-0.123-0.655-0.186-1.04-0.186zm6.21 0c-0.173 0-0.334 0.0155-0.48 0.0488-0.147 0.0333-0.286 0.0832-0.416 0.146-0.127 0.0633-0.249 0.138-0.365 0.225-0.113 0.0867-0.221 0.182-0.324 0.289l-0.084-0.404c-0.05-0.15-0.156-0.225-0.316-0.225h-0.754v5.13h1.23v-3.71c0.167-0.167 0.343-0.298 0.529-0.395 0.187-0.0967 0.388-0.146 0.602-0.146 0.293 0 0.511 0.0864 0.654 0.26 0.143 0.17 0.215 0.413 0.215 0.727v3.26h1.23v-3.26c0-0.287-0.0386-0.548-0.115-0.785-0.0733-0.24-0.181-0.445-0.328-0.615-0.143-0.173-0.324-0.307-0.541-0.4-0.217-0.0967-0.464-0.145-0.744-0.145zm-26.4 0.0801 2.07 4.75-0.959 2.05h0.92c0.12 0 0.207-0.0236 0.264-0.0703 0.06-0.0433 0.11-0.109 0.146-0.195l2.79-6.54h-0.99c-0.0767 0-0.148 0.0211-0.211 0.0644-0.06 0.0433-0.102 0.0994-0.129 0.166l-1.03 2.65c-0.0367 0.09-0.0702 0.182-0.104 0.275-0.03 0.09-0.0593 0.18-0.0859 0.273-0.0433-0.18-0.0974-0.362-0.164-0.545l-1.09-2.66c-0.0267-0.06-0.0683-0.113-0.125-0.16-0.0533-0.0467-0.128-0.0703-0.225-0.0703zm20.2 0.865c0.427 0 0.742 0.144 0.945 0.434 0.207 0.29 0.311 0.712 0.311 1.27s-0.104 0.973-0.311 1.26c-0.203 0.287-0.519 0.43-0.945 0.43-0.433 0-0.755-0.143-0.965-0.43-0.207-0.29-0.311-0.71-0.311-1.26s0.104-0.97 0.311-1.26c0.21-0.293 0.532-0.439 0.965-0.439zm-11.9 0.0137c0.163 0 0.307 0.0298 0.434 0.0898 0.13 0.06 0.24 0.155 0.33 0.285s0.158 0.3 0.205 0.51c0.05 0.207 0.0762 0.462 0.0762 0.762 0 0.297-0.0293 0.553-0.0859 0.773-0.0567 0.217-0.137 0.398-0.244 0.541-0.103 0.143-0.231 0.25-0.381 0.32s-0.319 0.104-0.506 0.104c-0.193 0-0.372-0.0329-0.539-0.0996-0.163-0.07-0.315-0.192-0.455-0.365v-2.3c0.157-0.197 0.326-0.348 0.506-0.455 0.183-0.11 0.403-0.166 0.66-0.166z" fill="#a2a9ae"/>
 </g>
</svg>
